<svg width="57" height="57" viewBox="0 0 57 57" fill="none" xmlns="http://www.w3.org/2000/svg">
<g filter="url(#filter0_d_4_199)">
<circle cx="28.5" cy="24.5" r="22.5" fill="white"/>
</g>
<g filter="url(#filter1_d_4_199)">
<circle cx="28.5" cy="24.5" r="22.5" fill="white"/>
</g>
<g clip-path="url(#clip0_4_199)">
<path d="M31.5053 30.6127C31.0795 32.3434 29.6149 33.1257 28.3431 33.0558C27.0907 32.987 25.8505 32.1308 25.5001 30.6127C25.4384 30.6127 25.3706 30.6127 25.3028 30.6127C24.2401 30.6127 23.1773 30.6101 22.1146 30.6137C21.5822 30.6152 21.1702 30.4056 20.9371 29.9217C20.7092 29.448 20.7948 29.0058 21.1095 28.5831C21.4848 28.0782 21.8357 27.5545 22.1906 27.0349C22.338 26.8192 22.3905 26.5729 22.39 26.3113C22.3874 24.8987 22.3594 23.4856 22.3951 22.0741C22.4614 19.4718 23.6776 17.5687 26.0417 16.48C29.4981 14.8884 33.6277 16.9777 34.4467 20.7003C34.5497 21.1684 34.5935 21.657 34.6007 22.1368C34.6205 23.5106 34.6114 24.8855 34.6052 26.2598C34.6037 26.5912 34.6899 26.8829 34.8816 27.1522C35.2437 27.6591 35.6017 28.1695 35.9561 28.682C36.233 29.0828 36.2682 29.5137 36.0494 29.9457C35.8301 30.3791 35.4579 30.6076 34.9719 30.6112C33.8837 30.6193 32.7954 30.6137 31.7072 30.6142C31.6389 30.6127 31.57 30.6127 31.5053 30.6127ZM34.9469 29.3812C34.5792 28.8508 34.2289 28.3378 33.8699 27.8309C33.5395 27.3633 33.3819 26.8482 33.3844 26.2756C33.39 24.9018 33.3906 23.5275 33.3829 22.1537C33.3814 21.8436 33.3574 21.53 33.309 21.224C32.8857 18.5453 30.1702 16.6952 27.5221 17.274C25.187 17.7844 23.6149 19.7304 23.6118 22.1175C23.6098 23.4469 23.597 24.7768 23.6174 26.1058C23.6281 26.8105 23.442 27.4286 23.0203 27.9915C22.6868 28.4372 22.3818 28.9049 22.0509 29.3817C26.3548 29.3812 30.6333 29.3812 34.9469 29.3812ZM30.1983 30.6224C29.0642 30.6224 27.9321 30.6224 26.7974 30.6224C26.9897 31.3149 27.7424 31.8411 28.5185 31.834C29.2778 31.8274 30.0203 31.294 30.1983 30.6224Z" fill="#F05A22"/>
</g>
<circle cx="33.1295" cy="17.3215" r="4.32544" fill="#F05A22"/>
<g clip-path="url(#clip1_4_199)">
<path d="M31.5053 30.6127C31.0795 32.3434 29.6149 33.1257 28.3431 33.0558C27.0907 32.987 25.8505 32.1308 25.5001 30.6127C25.4384 30.6127 25.3706 30.6127 25.3028 30.6127C24.2401 30.6127 23.1773 30.6101 22.1146 30.6137C21.5822 30.6152 21.1702 30.4056 20.9371 29.9217C20.7092 29.448 20.7948 29.0058 21.1095 28.5831C21.4848 28.0782 21.8357 27.5545 22.1906 27.0349C22.338 26.8192 22.3905 26.5729 22.39 26.3113C22.3874 24.8987 22.3594 23.4856 22.3951 22.0741C22.4614 19.4718 23.6776 17.5687 26.0417 16.48C29.4981 14.8884 33.6277 16.9777 34.4467 20.7003C34.5497 21.1684 34.5935 21.657 34.6007 22.1368C34.6205 23.5106 34.6114 24.8855 34.6052 26.2598C34.6037 26.5912 34.6899 26.8829 34.8816 27.1522C35.2437 27.6591 35.6017 28.1695 35.9561 28.682C36.233 29.0828 36.2682 29.5137 36.0494 29.9457C35.8301 30.3791 35.4579 30.6076 34.9719 30.6112C33.8837 30.6193 32.7954 30.6137 31.7072 30.6142C31.6389 30.6127 31.57 30.6127 31.5053 30.6127ZM34.9469 29.3812C34.5792 28.8508 34.2289 28.3378 33.8699 27.8309C33.5395 27.3633 33.3819 26.8482 33.3844 26.2756C33.39 24.9018 33.3906 23.5275 33.3829 22.1537C33.3814 21.8436 33.3574 21.53 33.309 21.224C32.8857 18.5453 30.1702 16.6952 27.5221 17.274C25.187 17.7844 23.6149 19.7304 23.6118 22.1175C23.6098 23.4469 23.597 24.7768 23.6174 26.1058C23.6281 26.8105 23.442 27.4286 23.0203 27.9915C22.6868 28.4372 22.3818 28.9049 22.0509 29.3817C26.3548 29.3812 30.6333 29.3812 34.9469 29.3812ZM30.1983 30.6224C29.0642 30.6224 27.9321 30.6224 26.7974 30.6224C26.9897 31.3149 27.7424 31.8411 28.5185 31.834C29.2778 31.8274 30.0203 31.294 30.1983 30.6224Z" fill="#263238"/>
</g>
<circle cx="33.1295" cy="17.3215" r="4.32544" fill="#F05A22"/>
<defs>
<filter id="filter0_d_4_199" x="0" y="0" width="57" height="57" filterUnits="userSpaceOnUse" color-interpolation-filters="sRGB">
<feFlood flood-opacity="0" result="BackgroundImageFix"/>
<feColorMatrix in="SourceAlpha" type="matrix" values="0 0 0 0 0 0 0 0 0 0 0 0 0 0 0 0 0 0 127 0" result="hardAlpha"/>
<feOffset dy="4"/>
<feGaussianBlur stdDeviation="3"/>
<feComposite in2="hardAlpha" operator="out"/>
<feColorMatrix type="matrix" values="0 0 0 0 0.941176 0 0 0 0 0.352941 0 0 0 0 0.133333 0 0 0 0.12 0"/>
<feBlend mode="normal" in2="BackgroundImageFix" result="effect1_dropShadow_4_199"/>
<feBlend mode="normal" in="SourceGraphic" in2="effect1_dropShadow_4_199" result="shape"/>
</filter>
<filter id="filter1_d_4_199" x="0" y="0" width="57" height="57" filterUnits="userSpaceOnUse" color-interpolation-filters="sRGB">
<feFlood flood-opacity="0" result="BackgroundImageFix"/>
<feColorMatrix in="SourceAlpha" type="matrix" values="0 0 0 0 0 0 0 0 0 0 0 0 0 0 0 0 0 0 127 0" result="hardAlpha"/>
<feOffset dy="4"/>
<feGaussianBlur stdDeviation="3"/>
<feComposite in2="hardAlpha" operator="out"/>
<feColorMatrix type="matrix" values="0 0 0 0 0.941176 0 0 0 0 0.352941 0 0 0 0 0.133333 0 0 0 0.12 0"/>
<feBlend mode="normal" in2="BackgroundImageFix" result="effect1_dropShadow_4_199"/>
<feBlend mode="normal" in="SourceGraphic" in2="effect1_dropShadow_4_199" result="shape"/>
</filter>
<clipPath id="clip0_4_199">
<rect width="15.3836" height="17.12" fill="white" transform="translate(20.8087 15.9402)"/>
</clipPath>
<clipPath id="clip1_4_199">
<rect width="15.3836" height="17.12" fill="white" transform="translate(20.8087 15.9402)"/>
</clipPath>
</defs>
</svg>
